<svg xmlns="http://www.w3.org/2000/svg" xmlns:xlink="http://www.w3.org/1999/xlink" contentStyleType="text/css" data-diagram-type="DESCRIPTION" height="518px" preserveAspectRatio="none" style="width:672px;height:518px;background:#FFFFFF;" version="1.1" viewBox="0 0 672 518" width="672px" zoomAndPan="magnify"><defs/><g><!--cluster Vision systeem--><g class="cluster" data-entity="Vision systeem" data-source-line="1" data-uid="ent0002" id="cluster_Vision systeem"><path d="M327.06,6 L447.3471,6 A3.75,3.75 0 0 1 449.8471,8.5 L456.8471,28.2969 L663.06,28.2969 A2.5,2.5 0 0 1 665.56,30.7969 L665.56,207.09 A2.5,2.5 0 0 1 663.06,209.59 L327.06,209.59 A2.5,2.5 0 0 1 324.56,207.09 L324.56,8.5 A2.5,2.5 0 0 1 327.06,6" fill="none" style="stroke:#000000;stroke-width:1.5;"/><line style="stroke:#000000;stroke-width:1.5;" x1="324.56" x2="456.8471" y1="28.2969" y2="28.2969"/><text fill="#000000" font-family="sans-serif" font-size="14" font-weight="bold" lengthAdjust="spacing" textLength="119.2871" x="328.56" y="20.9951">Vision systeem</text></g><!--entity Camera Lens--><g class="entity" data-entity="Camera Lens" data-source-line="2" data-uid="ent0003" id="entity_Camera Lens"><rect fill="#F1F1F1" height="46.2969" rx="2.5" ry="2.5" style="stroke:#181818;stroke-width:0.5;" width="131.9707" x="340.58" y="147.29"/><rect fill="#F1F1F1" height="10" style="stroke:#181818;stroke-width:0.5;" width="15" x="452.5507" y="152.29"/><rect fill="#F1F1F1" height="2" style="stroke:#181818;stroke-width:0.5;" width="4" x="450.5507" y="154.29"/><rect fill="#F1F1F1" height="2" style="stroke:#181818;stroke-width:0.5;" width="4" x="450.5507" y="158.29"/><text fill="#000000" font-family="sans-serif" font-size="14" lengthAdjust="spacing" textLength="91.9707" x="355.58" y="180.2851">Camera Lens</text></g><!--entity Vision Camera--><g class="entity" data-entity="Vision Camera" data-source-line="2" data-uid="ent0004" id="entity_Vision Camera"><rect fill="#F1F1F1" height="46.2969" rx="2.5" ry="2.5" style="stroke:#181818;stroke-width:0.5;" width="141.4795" x="507.82" y="147.29"/><rect fill="#F1F1F1" height="10" style="stroke:#181818;stroke-width:0.5;" width="15" x="629.2995" y="152.29"/><rect fill="#F1F1F1" height="2" style="stroke:#181818;stroke-width:0.5;" width="4" x="627.2995" y="154.29"/><rect fill="#F1F1F1" height="2" style="stroke:#181818;stroke-width:0.5;" width="4" x="627.2995" y="158.29"/><text fill="#000000" font-family="sans-serif" font-size="14" lengthAdjust="spacing" textLength="101.4795" x="522.82" y="180.2851">Vision Camera</text></g><!--entity Licht setup--><g class="entity" data-entity="Licht setup" data-source-line="3" data-uid="ent0006" id="entity_Licht setup"><rect fill="#F1F1F1" height="46.2969" rx="2.5" ry="2.5" style="stroke:#181818;stroke-width:0.5;" width="117.3555" x="519.89" y="41"/><rect fill="#F1F1F1" height="10" style="stroke:#181818;stroke-width:0.5;" width="15" x="617.2455" y="46"/><rect fill="#F1F1F1" height="2" style="stroke:#181818;stroke-width:0.5;" width="4" x="615.2455" y="48"/><rect fill="#F1F1F1" height="2" style="stroke:#181818;stroke-width:0.5;" width="4" x="615.2455" y="52"/><text fill="#000000" font-family="sans-serif" font-size="14" lengthAdjust="spacing" textLength="77.3555" x="534.89" y="73.9951">Licht setup</text></g><!--entity PLC--><g class="entity" data-entity="PLC" data-source-line="5" data-uid="ent0008" id="entity_PLC"><rect fill="#F1F1F1" height="46.2969" rx="2.5" ry="2.5" style="stroke:#181818;stroke-width:0.5;" width="66.0176" x="399.55" y="253.59"/><rect fill="#F1F1F1" height="10" style="stroke:#181818;stroke-width:0.5;" width="15" x="445.5676" y="258.59"/><rect fill="#F1F1F1" height="2" style="stroke:#181818;stroke-width:0.5;" width="4" x="443.5676" y="260.59"/><rect fill="#F1F1F1" height="2" style="stroke:#181818;stroke-width:0.5;" width="4" x="443.5676" y="264.59"/><text fill="#000000" font-family="sans-serif" font-size="14" lengthAdjust="spacing" textLength="26.0176" x="414.55" y="286.5851">PLC</text></g><!--entity Pneumatische cilinder--><g class="entity" data-entity="Pneumatische cilinder" data-source-line="6" data-uid="ent0010" id="entity_Pneumatische cilinder"><rect fill="#F1F1F1" height="46.2969" rx="2.5" ry="2.5" style="stroke:#181818;stroke-width:0.5;" width="194.8203" x="275.15" y="359.89"/><rect fill="#F1F1F1" height="10" style="stroke:#181818;stroke-width:0.5;" width="15" x="449.9703" y="364.89"/><rect fill="#F1F1F1" height="2" style="stroke:#181818;stroke-width:0.5;" width="4" x="447.9703" y="366.89"/><rect fill="#F1F1F1" height="2" style="stroke:#181818;stroke-width:0.5;" width="4" x="447.9703" y="370.89"/><text fill="#000000" font-family="sans-serif" font-size="14" lengthAdjust="spacing" textLength="154.8203" x="290.15" y="392.8851">Pneumatische cilinder</text></g><!--entity Scada-systeem--><g class="entity" data-entity="Scada-systeem" data-source-line="7" data-uid="ent0012" id="entity_Scada-systeem"><rect fill="#F1F1F1" height="46.2969" rx="2.5" ry="2.5" style="stroke:#181818;stroke-width:0.5;" width="146.9072" x="505.11" y="359.89"/><rect fill="#F1F1F1" height="10" style="stroke:#181818;stroke-width:0.5;" width="15" x="632.0172" y="364.89"/><rect fill="#F1F1F1" height="2" style="stroke:#181818;stroke-width:0.5;" width="4" x="630.0172" y="366.89"/><rect fill="#F1F1F1" height="2" style="stroke:#181818;stroke-width:0.5;" width="4" x="630.0172" y="370.89"/><text fill="#000000" font-family="sans-serif" font-size="14" lengthAdjust="spacing" textLength="106.9072" x="520.11" y="392.8851">Scada-systeem</text></g><!--entity Cilinder sensor--><g class="entity" data-entity="Cilinder sensor" data-source-line="9" data-uid="ent0015" id="entity_Cilinder sensor"><rect fill="#F1F1F1" height="46.2969" rx="2.5" ry="2.5" style="stroke:#181818;stroke-width:0.5;" width="144.4189" x="300.35" y="466.18"/><rect fill="#F1F1F1" height="10" style="stroke:#181818;stroke-width:0.5;" width="15" x="424.7689" y="471.18"/><rect fill="#F1F1F1" height="2" style="stroke:#181818;stroke-width:0.5;" width="4" x="422.7689" y="473.18"/><rect fill="#F1F1F1" height="2" style="stroke:#181818;stroke-width:0.5;" width="4" x="422.7689" y="477.18"/><text fill="#000000" font-family="sans-serif" font-size="14" lengthAdjust="spacing" textLength="104.4189" x="315.35" y="499.1751">Cilinder sensor</text></g><!--entity Conveyer--><g class="entity" data-entity="Conveyer" data-source-line="10" data-uid="ent0017" id="entity_Conveyer"><rect fill="#F1F1F1" height="46.2969" rx="2.5" ry="2.5" style="stroke:#181818;stroke-width:0.5;" width="106.7666" x="199.18" y="147.29"/><rect fill="#F1F1F1" height="10" style="stroke:#181818;stroke-width:0.5;" width="15" x="285.9466" y="152.29"/><rect fill="#F1F1F1" height="2" style="stroke:#181818;stroke-width:0.5;" width="4" x="283.9466" y="154.29"/><rect fill="#F1F1F1" height="2" style="stroke:#181818;stroke-width:0.5;" width="4" x="283.9466" y="158.29"/><text fill="#000000" font-family="sans-serif" font-size="14" lengthAdjust="spacing" textLength="66.7666" x="214.18" y="180.2851">Conveyer</text></g><!--entity Sensor conveyer--><g class="entity" data-entity="Sensor conveyer" data-source-line="11" data-uid="ent0019" id="entity_Sensor conveyer"><rect fill="#F1F1F1" height="46.2969" rx="2.5" ry="2.5" style="stroke:#181818;stroke-width:0.5;" width="157.127" x="7" y="147.29"/><rect fill="#F1F1F1" height="10" style="stroke:#181818;stroke-width:0.5;" width="15" x="144.127" y="152.29"/><rect fill="#F1F1F1" height="2" style="stroke:#181818;stroke-width:0.5;" width="4" x="142.127" y="154.29"/><rect fill="#F1F1F1" height="2" style="stroke:#181818;stroke-width:0.5;" width="4" x="142.127" y="158.29"/><text fill="#000000" font-family="sans-serif" font-size="14" lengthAdjust="spacing" textLength="117.127" x="22" y="180.2851">Sensor conveyer</text></g><!--link Camera Lens to Vision Camera--><g class="link" data-entity-1="Camera Lens" data-entity-2="Vision Camera" data-source-line="2" data-uid="lnk5" id="link_Camera Lens_Vision Camera"><path d="M472.74,170.44 C484.32,170.44 495.89,170.44 507.47,170.44" fill="none" id="Camera Lens-Vision Camera" style="stroke:#181818;stroke-width:1;"/></g><!--link Licht setup to Vision Camera--><g class="link" data-entity-1="Licht setup" data-entity-2="Vision Camera" data-source-line="3" data-uid="lnk7" id="link_Licht setup_Vision Camera"><path d="M578.56,87.77 C578.56,105.27 578.56,129.37 578.56,146.85" fill="none" id="Licht setup-Vision Camera" style="stroke:#181818;stroke-width:1;"/></g><!--link Vision Camera to PLC--><g class="link" data-entity-1="Vision Camera" data-entity-2="PLC" data-source-line="5" data-uid="lnk9" id="link_Vision Camera_PLC"><path d="M546.88,194.07 C522.39,211.57 488.65,235.67 464.18,253.15" fill="none" id="Vision Camera-PLC" style="stroke:#181818;stroke-width:1;"/></g><!--link PLC to Pneumatische cilinder--><g class="link" data-entity-1="PLC" data-entity-2="Pneumatische cilinder" data-source-line="6" data-uid="lnk11" id="link_PLC_Pneumatische cilinder"><path d="M419.54,300.37 C409.48,317.86 395.61,341.97 385.56,359.45" fill="none" id="PLC-Pneumatische cilinder" style="stroke:#181818;stroke-width:1;"/></g><!--link Vision Camera to Scada-systeem--><g class="link" data-entity-1="Vision Camera" data-entity-2="Scada-systeem" data-source-line="7" data-uid="lnk13" id="link_Vision Camera_Scada-systeem"><path d="M578.56,193.98 C578.56,234.51 578.56,319.24 578.56,359.66" fill="none" id="Vision Camera-Scada-systeem" style="stroke:#181818;stroke-width:1;"/></g><!--link PLC to Scada-systeem--><g class="link" data-entity-1="PLC" data-entity-2="Scada-systeem" data-source-line="8" data-uid="lnk14" id="link_PLC_Scada-systeem"><path d="M464.24,300.37 C488.73,317.86 522.47,341.97 546.95,359.45" fill="none" id="PLC-Scada-systeem" style="stroke:#181818;stroke-width:1;"/></g><!--link Pneumatische cilinder to Cilinder sensor--><g class="link" data-entity-1="Pneumatische cilinder" data-entity-2="Cilinder sensor" data-source-line="9" data-uid="lnk16" id="link_Pneumatische cilinder_Cilinder sensor"><path d="M372.56,406.67 C372.56,424.16 372.56,448.26 372.56,465.74" fill="none" id="Pneumatische cilinder-Cilinder sensor" style="stroke:#181818;stroke-width:1;"/></g><!--link Conveyer to PLC--><g class="link" data-entity-1="Conveyer" data-entity-2="PLC" data-source-line="10" data-uid="lnk18" id="link_Conveyer_PLC"><path d="M286.66,194.05 C298.53,201.72 312.02,210.21 324.56,217.59 C349.16,232.06 377.59,247.32 399.11,258.57" fill="none" id="Conveyer-PLC" style="stroke:#181818;stroke-width:1;"/></g><!--link Sensor conveyer to Conveyer--><g class="link" data-entity-1="Sensor conveyer" data-entity-2="Conveyer" data-source-line="11" data-uid="lnk20" id="link_Sensor conveyer_Conveyer"><path d="M164.5,170.44 C175.96,170.44 187.43,170.44 198.9,170.44" fill="none" id="Sensor conveyer-Conveyer" style="stroke:#181818;stroke-width:1;"/></g><!--SRC=[RO-n2iCm34JtV8N8dg_mwg4Gw68y24SqfhKT8gSGIlwzhksIqcGHtDsJE4rexdWZQA-MRV30AqSYrxuQ9T3HZ239iuOEL2MAhHibhHaZCCLbIlaHs9e_9qCNATBkPnRfQN4OBPkHmDY7zGFD-dIpDpXWLml-tZW4fpSpAgfAjJs7PAOtWt_I-WLAlJwdOFO8TkuD]--></g></svg>