<svg xmlns="http://www.w3.org/2000/svg" xmlns:xlink="http://www.w3.org/1999/xlink" contentStyleType="text/css" data-diagram-type="ACTIVITY" height="522px" preserveAspectRatio="none" style="width:347px;height:522px;background:#FFFFFF;" version="1.1" viewBox="0 0 347 522" width="347px" zoomAndPan="magnify"><defs/><g><ellipse cx="171.7446" cy="20" fill="#222222" rx="10" ry="10" style="stroke:#222222;stroke-width:1;"/><rect fill="#F1F1F1" height="33.9688" rx="12.5" ry="12.5" style="stroke:#181818;stroke-width:0.5;" width="116.9727" x="113.2583" y="50"/><text fill="#000000" font-family="sans-serif" font-size="12" lengthAdjust="spacing" textLength="96.9727" x="123.2583" y="71.1387">Transport bottle</text><rect fill="#F1F1F1" height="33.9688" rx="12.5" ry="12.5" style="stroke:#181818;stroke-width:0.5;" width="157.4434" x="93.0229" y="103.9688"/><text fill="#000000" font-family="sans-serif" font-size="12" lengthAdjust="spacing" textLength="137.4434" x="103.0229" y="125.1074">Bottle in fov of camera</text><rect fill="#F1F1F1" height="33.9688" rx="12.5" ry="12.5" style="stroke:#181818;stroke-width:0.5;" width="144.4883" x="99.5005" y="157.9375"/><text fill="#000000" font-family="sans-serif" font-size="12" lengthAdjust="spacing" textLength="124.4883" x="109.5005" y="179.0762">Take image of bottle</text><rect fill="#F1F1F1" height="33.9688" rx="12.5" ry="12.5" style="stroke:#181818;stroke-width:0.5;" width="107.1875" x="118.1509" y="211.9063"/><text fill="#000000" font-family="sans-serif" font-size="12" lengthAdjust="spacing" textLength="87.1875" x="128.1509" y="233.0449">Process image</text><rect fill="#F1F1F1" height="33.9688" rx="12.5" ry="12.5" style="stroke:#181818;stroke-width:0.5;" width="108.4297" x="117.5298" y="265.875"/><text fill="#000000" font-family="sans-serif" font-size="12" lengthAdjust="spacing" textLength="88.4297" x="127.5298" y="287.0137">Analyse image</text><polygon fill="#F1F1F1" points="121.8687,319.8438,221.6206,319.8438,233.6206,331.8438,221.6206,343.8438,121.8687,343.8438,109.8687,331.8438,121.8687,319.8438" style="stroke:#181818;stroke-width:0.5;"/><text fill="#000000" font-family="sans-serif" font-size="11" lengthAdjust="spacing" textLength="99.752" x="121.8687" y="335.6519">Bottle has defect?</text><text fill="#000000" font-family="sans-serif" font-size="11" lengthAdjust="spacing" textLength="13.7017" x="96.167" y="329.2495">no</text><text fill="#000000" font-family="sans-serif" font-size="11" lengthAdjust="spacing" textLength="19.0083" x="233.6206" y="329.2495">yes</text><rect fill="#F1F1F1" height="47.9375" rx="12.5" ry="12.5" style="stroke:#181818;stroke-width:0.5;" width="107.2754" x="31.6631" y="353.8438"/><text fill="#000000" font-family="sans-serif" font-size="12" lengthAdjust="spacing" textLength="83.4609" x="41.6631" y="374.9824">Push bottle to</text><text fill="#000000" font-family="sans-serif" font-size="12" lengthAdjust="spacing" textLength="86.0566" x="41.6631" y="388.9512">next conveyer</text><rect fill="#F1F1F1" height="47.9375" rx="12.5" ry="12.5" style="stroke:#181818;stroke-width:0.5;" width="148.6016" x="11" y="421.7813"/><text fill="#000000" font-family="sans-serif" font-size="12" lengthAdjust="spacing" textLength="128.6016" x="21" y="442.9199">Continue transport of</text><text fill="#000000" font-family="sans-serif" font-size="12" lengthAdjust="spacing" textLength="123.0586" x="21" y="456.8887">sbottle to packaging</text><ellipse cx="85.3008" cy="500.7188" fill="none" rx="11" ry="11" style="stroke:#222222;stroke-width:1;"/><ellipse cx="85.3008" cy="500.7188" fill="#222222" rx="6" ry="6" style="stroke:#222222;stroke-width:1;"/><rect fill="#F1F1F1" height="47.9375" rx="12.5" ry="12.5" style="stroke:#181818;stroke-width:0.5;" width="157.1738" x="179.6016" y="353.8438"/><text fill="#000000" font-family="sans-serif" font-size="12" lengthAdjust="spacing" textLength="137.1738" x="189.6016" y="374.9824">Let the bottle continue</text><text fill="#000000" font-family="sans-serif" font-size="12" lengthAdjust="spacing" textLength="121.7871" x="189.6016" y="388.9512">on current conveyer</text><rect fill="#F1F1F1" height="47.9375" rx="12.5" ry="12.5" style="stroke:#181818;stroke-width:0.5;" width="124.6426" x="195.8672" y="421.7813"/><text fill="#000000" font-family="sans-serif" font-size="12" lengthAdjust="spacing" textLength="104.6426" x="205.8672" y="442.9199">Bottle falls in box</text><text fill="#000000" font-family="sans-serif" font-size="12" lengthAdjust="spacing" textLength="69.8613" x="205.8672" y="456.8887">with rejects</text><ellipse cx="258.1885" cy="500.7188" fill="none" rx="11" ry="11" style="stroke:#222222;stroke-width:1;"/><ellipse cx="258.1885" cy="500.7188" fill="#222222" rx="6" ry="6" style="stroke:#222222;stroke-width:1;"/><line style="stroke:#181818;stroke-width:1;" x1="171.7446" x2="171.7446" y1="30" y2="50"/><polygon fill="#181818" points="167.7446,40,171.7446,50,175.7446,40,171.7446,44" style="stroke:#181818;stroke-width:1;"/><line style="stroke:#181818;stroke-width:1;" x1="171.7446" x2="171.7446" y1="83.9688" y2="103.9688"/><polygon fill="#181818" points="167.7446,93.9688,171.7446,103.9688,175.7446,93.9688,171.7446,97.9688" style="stroke:#181818;stroke-width:1;"/><line style="stroke:#181818;stroke-width:1;" x1="171.7446" x2="171.7446" y1="137.9375" y2="157.9375"/><polygon fill="#181818" points="167.7446,147.9375,171.7446,157.9375,175.7446,147.9375,171.7446,151.9375" style="stroke:#181818;stroke-width:1;"/><line style="stroke:#181818;stroke-width:1;" x1="171.7446" x2="171.7446" y1="191.9063" y2="211.9063"/><polygon fill="#181818" points="167.7446,201.9063,171.7446,211.9063,175.7446,201.9063,171.7446,205.9063" style="stroke:#181818;stroke-width:1;"/><line style="stroke:#181818;stroke-width:1;" x1="171.7446" x2="171.7446" y1="245.875" y2="265.875"/><polygon fill="#181818" points="167.7446,255.875,171.7446,265.875,175.7446,255.875,171.7446,259.875" style="stroke:#181818;stroke-width:1;"/><line style="stroke:#181818;stroke-width:1;" x1="85.3008" x2="85.3008" y1="401.7813" y2="421.7813"/><polygon fill="#181818" points="81.3008,411.7813,85.3008,421.7813,89.3008,411.7813,85.3008,415.7813" style="stroke:#181818;stroke-width:1;"/><line style="stroke:#181818;stroke-width:1;" x1="85.3008" x2="85.3008" y1="469.7188" y2="489.7188"/><polygon fill="#181818" points="81.3008,479.7188,85.3008,489.7188,89.3008,479.7188,85.3008,483.7188" style="stroke:#181818;stroke-width:1;"/><line style="stroke:#181818;stroke-width:1;" x1="258.1885" x2="258.1885" y1="401.7813" y2="421.7813"/><polygon fill="#181818" points="254.1885,411.7813,258.1885,421.7813,262.1885,411.7813,258.1885,415.7813" style="stroke:#181818;stroke-width:1;"/><line style="stroke:#181818;stroke-width:1;" x1="258.1885" x2="258.1885" y1="469.7188" y2="489.7188"/><polygon fill="#181818" points="254.1885,479.7188,258.1885,489.7188,262.1885,479.7188,258.1885,483.7188" style="stroke:#181818;stroke-width:1;"/><line style="stroke:#181818;stroke-width:1;" x1="109.8687" x2="85.3008" y1="331.8438" y2="331.8438"/><line style="stroke:#181818;stroke-width:1;" x1="85.3008" x2="85.3008" y1="331.8438" y2="353.8438"/><polygon fill="#181818" points="81.3008,343.8438,85.3008,353.8438,89.3008,343.8438,85.3008,347.8438" style="stroke:#181818;stroke-width:1;"/><line style="stroke:#181818;stroke-width:1;" x1="233.6206" x2="258.1885" y1="331.8438" y2="331.8438"/><line style="stroke:#181818;stroke-width:1;" x1="258.1885" x2="258.1885" y1="331.8438" y2="353.8438"/><polygon fill="#181818" points="254.1885,343.8438,258.1885,353.8438,262.1885,343.8438,258.1885,347.8438" style="stroke:#181818;stroke-width:1;"/><line style="stroke:#181818;stroke-width:1;" x1="171.7446" x2="171.7446" y1="299.8438" y2="319.8438"/><polygon fill="#181818" points="167.7446,309.8438,171.7446,319.8438,175.7446,309.8438,171.7446,313.8438" style="stroke:#181818;stroke-width:1;"/><!--SRC=[NP0nRiCm34LtduAZSmLdADAk7G8qenT6fMmr2ccGT1hVlb9gfq0taP_yxrCVZkfDTr9acqGTpkAUQTzqhuy798OeDv080Q-aM9GJNah_YWFLzdFXg1B8x5SfzO4nBqPRdIAqg-U81fyKAVZB3dmaXfPbrm1qnzd6rH5Se6UckqCGlj52kgyZRyAUU2xwCxF4dkrlQy9mmI7nKEVDPMeebnpjGlQ0l9DNwiO9gs7FmX1cLU9_o3Lsn9ojViXPxZr_9nz1wQjSOHle1m00]--></g></svg>