<svg xmlns="http://www.w3.org/2000/svg" xmlns:xlink="http://www.w3.org/1999/xlink" contentStyleType="text/css" data-diagram-type="DESCRIPTION" height="701px" preserveAspectRatio="none" style="width:628px;height:701px;background:#FFFFFF;" version="1.1" viewBox="0 0 628 701" width="628px" zoomAndPan="magnify"><defs/><g><!--cluster Vision systeem--><g class="cluster" data-entity="Vision systeem" data-source-line="1" data-uid="ent0002" id="cluster_Vision systeem"><path d="M162.06,6 L282.3471,6 A3.75,3.75 0 0 1 284.8471,8.5 L291.8471,28.2969 L498.06,28.2969 A2.5,2.5 0 0 1 500.56,30.7969 L500.56,207.09 A2.5,2.5 0 0 1 498.06,209.59 L162.06,209.59 A2.5,2.5 0 0 1 159.56,207.09 L159.56,8.5 A2.5,2.5 0 0 1 162.06,6" fill="none" style="stroke:#000000;stroke-width:1.5;"/><line style="stroke:#000000;stroke-width:1.5;" x1="159.56" x2="291.8471" y1="28.2969" y2="28.2969"/><text fill="#000000" font-family="sans-serif" font-size="14" font-weight="bold" lengthAdjust="spacing" textLength="119.2871" x="163.56" y="20.9951">Vision systeem</text></g><!--entity Camera Lens--><g class="entity" data-entity="Camera Lens" data-source-line="2" data-uid="ent0003" id="entity_Camera Lens"><rect fill="#F1F1F1" height="46.2969" rx="2.5" ry="2.5" style="stroke:#181818;stroke-width:0.5;" width="131.9707" x="175.58" y="147.29"/><rect fill="#F1F1F1" height="10" style="stroke:#181818;stroke-width:0.5;" width="15" x="287.5507" y="152.29"/><rect fill="#F1F1F1" height="2" style="stroke:#181818;stroke-width:0.5;" width="4" x="285.5507" y="154.29"/><rect fill="#F1F1F1" height="2" style="stroke:#181818;stroke-width:0.5;" width="4" x="285.5507" y="158.29"/><text fill="#000000" font-family="sans-serif" font-size="14" lengthAdjust="spacing" textLength="91.9707" x="190.58" y="180.2851">Camera Lens</text></g><!--entity Vision Camera--><g class="entity" data-entity="Vision Camera" data-source-line="2" data-uid="ent0004" id="entity_Vision Camera"><rect fill="#F1F1F1" height="46.2969" rx="2.5" ry="2.5" style="stroke:#181818;stroke-width:0.5;" width="141.4795" x="342.82" y="147.29"/><rect fill="#F1F1F1" height="10" style="stroke:#181818;stroke-width:0.5;" width="15" x="464.2995" y="152.29"/><rect fill="#F1F1F1" height="2" style="stroke:#181818;stroke-width:0.5;" width="4" x="462.2995" y="154.29"/><rect fill="#F1F1F1" height="2" style="stroke:#181818;stroke-width:0.5;" width="4" x="462.2995" y="158.29"/><text fill="#000000" font-family="sans-serif" font-size="14" lengthAdjust="spacing" textLength="101.4795" x="357.82" y="180.2851">Vision Camera</text></g><!--entity Licht setup--><g class="entity" data-entity="Licht setup" data-source-line="3" data-uid="ent0006" id="entity_Licht setup"><rect fill="#F1F1F1" height="46.2969" rx="2.5" ry="2.5" style="stroke:#181818;stroke-width:0.5;" width="117.3555" x="354.89" y="41"/><rect fill="#F1F1F1" height="10" style="stroke:#181818;stroke-width:0.5;" width="15" x="452.2455" y="46"/><rect fill="#F1F1F1" height="2" style="stroke:#181818;stroke-width:0.5;" width="4" x="450.2455" y="48"/><rect fill="#F1F1F1" height="2" style="stroke:#181818;stroke-width:0.5;" width="4" x="450.2455" y="52"/><text fill="#000000" font-family="sans-serif" font-size="14" lengthAdjust="spacing" textLength="77.3555" x="369.89" y="73.9951">Licht setup</text></g><!--entity PLC--><g class="entity" data-entity="PLC" data-source-line="5" data-uid="ent0008" id="entity_PLC"><rect fill="#F1F1F1" height="46.2969" rx="2.5" ry="2.5" style="stroke:#181818;stroke-width:0.5;" width="66.0176" x="199.55" y="375.59"/><rect fill="#F1F1F1" height="10" style="stroke:#181818;stroke-width:0.5;" width="15" x="245.5676" y="380.59"/><rect fill="#F1F1F1" height="2" style="stroke:#181818;stroke-width:0.5;" width="4" x="243.5676" y="382.59"/><rect fill="#F1F1F1" height="2" style="stroke:#181818;stroke-width:0.5;" width="4" x="243.5676" y="386.59"/><text fill="#000000" font-family="sans-serif" font-size="14" lengthAdjust="spacing" textLength="26.0176" x="214.55" y="408.5851">PLC</text></g><!--entity Pneumatische cilinder--><g class="entity" data-entity="Pneumatische cilinder" data-source-line="6" data-uid="ent0010" id="entity_Pneumatische cilinder"><rect fill="#F1F1F1" height="46.2969" rx="2.5" ry="2.5" style="stroke:#181818;stroke-width:0.5;" width="194.8203" x="135.15" y="481.89"/><rect fill="#F1F1F1" height="10" style="stroke:#181818;stroke-width:0.5;" width="15" x="309.9703" y="486.89"/><rect fill="#F1F1F1" height="2" style="stroke:#181818;stroke-width:0.5;" width="4" x="307.9703" y="488.89"/><rect fill="#F1F1F1" height="2" style="stroke:#181818;stroke-width:0.5;" width="4" x="307.9703" y="492.89"/><text fill="#000000" font-family="sans-serif" font-size="14" lengthAdjust="spacing" textLength="154.8203" x="150.15" y="514.8851">Pneumatische cilinder</text></g><!--entity Scada--><g class="entity" data-entity="Scada" data-source-line="7" data-uid="ent0012" id="entity_Scada"><rect fill="#F1F1F1" height="46.2969" rx="2.5" ry="2.5" style="stroke:#181818;stroke-width:0.5;" width="82.6289" x="420.25" y="649.18"/><rect fill="#F1F1F1" height="10" style="stroke:#181818;stroke-width:0.5;" width="15" x="482.8789" y="654.18"/><rect fill="#F1F1F1" height="2" style="stroke:#181818;stroke-width:0.5;" width="4" x="480.8789" y="656.18"/><rect fill="#F1F1F1" height="2" style="stroke:#181818;stroke-width:0.5;" width="4" x="480.8789" y="660.18"/><text fill="#000000" font-family="sans-serif" font-size="14" lengthAdjust="spacing" textLength="42.6289" x="435.25" y="682.1751">Scada</text></g><!--entity Cilinder sensor--><g class="entity" data-entity="Cilinder sensor" data-source-line="9" data-uid="ent0015" id="entity_Cilinder sensor"><rect fill="#F1F1F1" height="46.2969" rx="2.5" ry="2.5" style="stroke:#181818;stroke-width:0.5;" width="144.4189" x="300.35" y="375.59"/><rect fill="#F1F1F1" height="10" style="stroke:#181818;stroke-width:0.5;" width="15" x="424.7689" y="380.59"/><rect fill="#F1F1F1" height="2" style="stroke:#181818;stroke-width:0.5;" width="4" x="422.7689" y="382.59"/><rect fill="#F1F1F1" height="2" style="stroke:#181818;stroke-width:0.5;" width="4" x="422.7689" y="386.59"/><text fill="#000000" font-family="sans-serif" font-size="14" lengthAdjust="spacing" textLength="104.4189" x="315.35" y="408.5851">Cilinder sensor</text></g><!--entity Conveyer--><g class="entity" data-entity="Conveyer" data-source-line="10" data-uid="ent0017" id="entity_Conveyer"><rect fill="#F1F1F1" height="46.2969" rx="2.5" ry="2.5" style="stroke:#181818;stroke-width:0.5;" width="106.7666" x="516.18" y="41"/><rect fill="#F1F1F1" height="10" style="stroke:#181818;stroke-width:0.5;" width="15" x="602.9466" y="46"/><rect fill="#F1F1F1" height="2" style="stroke:#181818;stroke-width:0.5;" width="4" x="600.9466" y="48"/><rect fill="#F1F1F1" height="2" style="stroke:#181818;stroke-width:0.5;" width="4" x="600.9466" y="52"/><text fill="#000000" font-family="sans-serif" font-size="14" lengthAdjust="spacing" textLength="66.7666" x="531.18" y="73.9951">Conveyer</text></g><!--entity Sensor conveyer--><g class="entity" data-entity="Sensor conveyer" data-source-line="11" data-uid="ent0018" id="entity_Sensor conveyer"><rect fill="#F1F1F1" height="46.2969" rx="2.5" ry="2.5" style="stroke:#181818;stroke-width:0.5;" width="157.127" x="7" y="375.59"/><rect fill="#F1F1F1" height="10" style="stroke:#181818;stroke-width:0.5;" width="15" x="144.127" y="380.59"/><rect fill="#F1F1F1" height="2" style="stroke:#181818;stroke-width:0.5;" width="4" x="142.127" y="382.59"/><rect fill="#F1F1F1" height="2" style="stroke:#181818;stroke-width:0.5;" width="4" x="142.127" y="386.59"/><text fill="#000000" font-family="sans-serif" font-size="14" lengthAdjust="spacing" textLength="117.127" x="22" y="408.5851">Sensor conveyer</text></g><!--link Camera Lens to Vision Camera--><g class="link" data-entity-1="Camera Lens" data-entity-2="Vision Camera" data-source-line="2" data-uid="lnk5" id="link_Camera Lens_Vision Camera"><path d="M307.74,170.44 C319.32,170.44 330.89,170.44 342.47,170.44" fill="none" id="Camera Lens-Vision Camera" style="stroke:#181818;stroke-width:1;"/></g><!--link Licht setup to Vision Camera--><g class="link" data-entity-1="Licht setup" data-entity-2="Vision Camera" data-source-line="3" data-uid="lnk7" id="link_Licht setup_Vision Camera"><path d="M413.56,87.77 C413.56,105.27 413.56,129.37 413.56,146.85" fill="none" id="Licht setup-Vision Camera" style="stroke:#181818;stroke-width:1;"/></g><!--link Vision Camera to PLC--><g class="link" data-entity-1="Vision Camera" data-entity-2="PLC" data-source-line="5" data-uid="lnk9" id="link_Vision Camera_PLC"><path d="M395.55,193.97 C360.85,237.34 285.14,332 250.51,375.3" fill="none" id="Vision Camera-PLC" style="stroke:#181818;stroke-width:1;"/></g><!--link PLC to Pneumatische cilinder--><g class="link" data-entity-1="PLC" data-entity-2="Pneumatische cilinder" data-source-line="6" data-uid="lnk11" id="link_PLC_Pneumatische cilinder"><path d="M232.56,422.37 C232.56,439.86 232.56,463.97 232.56,481.45" fill="none" id="PLC-Pneumatische cilinder" style="stroke:#181818;stroke-width:1;"/></g><!--link Vision Camera to Scada--><g class="link" data-entity-1="Vision Camera" data-entity-2="Scada" data-source-line="7" data-uid="lnk13" id="link_Vision Camera_Scada"><path d="M436.96,193.87 C461.82,220.21 497.56,266.47 497.56,314.59 C497.56,314.59 497.56,314.59 497.56,506.03 C497.56,558.17 480.26,617.47 469.64,648.94" fill="none" id="Vision Camera-Scada" style="stroke:#181818;stroke-width:1;"/></g><!--link PLC to Scada--><g class="link" data-entity-1="PLC" data-entity-2="Scada" data-source-line="8" data-uid="lnk14" id="link_PLC_Scada"><path d="M265.82,418.41 C290.42,433.35 323.66,456.03 347.56,481.89 C396.29,534.6 434.66,611.39 451.8,648.95" fill="none" id="PLC-Scada" style="stroke:#181818;stroke-width:1;"/></g><!--link PLC to Cilinder sensor--><g class="link" data-entity-1="PLC" data-entity-2="Cilinder sensor" data-source-line="9" data-uid="lnk16" id="link_PLC_Cilinder sensor"><path d="M265.92,398.74 C277.31,398.74 288.7,398.74 300.08,398.74" fill="none" id="PLC-Cilinder sensor" style="stroke:#181818;stroke-width:1;"/></g><!--link Sensor conveyer to PLC--><g class="link" data-entity-1="Sensor conveyer" data-entity-2="PLC" data-source-line="11" data-uid="lnk19" id="link_Sensor conveyer_PLC"><path d="M164.52,398.74 C176.04,398.74 187.55,398.74 199.07,398.74" fill="none" id="Sensor conveyer-PLC" style="stroke:#181818;stroke-width:1;"/></g><!--SRC=[ROyn2iCm34Ltdq9axocyUWW4kXWFmX6DQ6C7ooc4qhlNSLqAJHSDJ-z_f0Nz5Iy4tPc5Om3P91FDtKDPZJCb14D179p0DkEDdRA6_PH1AAzBsH-5f_eXHTgrtkYItcTDzO7M6JEBdmWytpYCbDoVBDZ1uuZVx161rQsWt1Ka9WVbZnZkjDNEeKBm7mBjd1S0]--></g></svg>